<?xml version="1.0" standalone="no"?>
<!DOCTYPE svg PUBLIC "-//W3C//DTD SVG 20010904//EN"
 "http://www.w3.org/TR/2001/REC-SVG-20010904/DTD/svg10.dtd">
<svg version="1.0" xmlns="http://www.w3.org/2000/svg"
 width="48.000000pt" height="48.000000pt" viewBox="0 0 48.000000 48.000000"
 preserveAspectRatio="xMidYMid meet">

<g transform="translate(0.000000,48.000000) scale(0.100000,-0.100000)"
fill="#000000" stroke="none">
<path d="M163 470 c-13 -5 -23 -12 -23 -15 0 -3 46 -5 102 -5 80 0 99 3 90 12
-15 15 -139 21 -169 8z"/>
<path d="M91 391 c-16 -16 -19 -32 -18 -84 1 -53 -2 -69 -18 -87 -15 -16 -20
-38 -22 -83 0 -33 2 -56 5 -50 9 13 44 13 39 -1 -2 -6 -18 -11 -34 -11 -39 0
-50 -10 -33 -30 8 -10 30 -15 60 -15 26 0 64 -7 83 -15 43 -18 125 -20 164 -3
15 6 57 14 93 17 73 7 87 24 51 60 -12 12 -21 17 -21 13 0 -4 5 -13 12 -20 8
-8 8 -12 1 -12 -18 0 -25 34 -9 45 10 7 12 16 6 25 -5 8 -7 24 -4 35 3 13 -2
28 -15 39 -12 11 -21 27 -21 36 0 9 -5 21 -11 27 -8 8 -8 17 0 31 17 32 13 56
-12 80 -31 29 -63 28 -91 -3 -16 -17 -34 -25 -56 -25 -22 0 -40 8 -56 25 -28
30 -67 32 -93 6z m89 -16 c19 -23 5 -29 -24 -10 -16 10 -33 14 -47 10 -14 -5
-19 -4 -15 4 10 16 72 13 86 -4z m211 -7 c12 -22 11 -22 -8 -5 -25 21 -41 22
-65 0 -22 -19 -36 -10 -18 12 20 24 77 19 91 -7z m-264 -30 c-3 -7 -5 -2 -5
12 0 14 2 19 5 13 2 -7 2 -19 0 -25z m229 -5 c-11 -11 -19 6 -11 24 8 17 8 17
12 0 3 -10 2 -21 -1 -24z m-80 -8 c4 -8 10 -12 15 -9 5 3 9 0 9 -6 0 -14 60
-40 77 -33 7 3 13 -2 13 -11 0 -13 -6 -15 -27 -9 -36 9 -210 9 -245 0 -22 -6
-28 -4 -28 9 0 8 6 14 13 11 6 -2 25 2 40 10 15 8 32 11 37 8 6 -4 7 1 3 11
-4 12 -3 15 5 10 7 -4 15 -1 18 8 8 21 63 21 70 1z m83 -91 c10 -9 -37 -33
-77 -39 -55 -8 -117 2 -155 26 l-30 18 54 4 c56 4 201 -2 208 -9z m-286 -30
c-15 -7 21 -44 42 -44 8 0 15 -4 15 -10 0 -16 -33 -11 -59 9 -25 19 -24 52 1
50 9 0 10 -2 1 -5z m355 -21 c2 -14 -4 -23 -17 -28 -12 -3 -21 -13 -21 -21 0
-19 -16 -18 -24 1 -5 15 -31 16 -53 2 -8 -5 -13 -4 -13 2 0 6 5 12 10 12 6 1
15 3 20 4 6 1 18 3 28 4 25 1 66 37 52 44 -6 3 -5 4 2 3 7 -1 14 -12 16 -23z
m-255 -37 c4 -10 1 -13 -9 -9 -7 3 -14 9 -14 14 0 14 17 10 23 -5z m42 -6 c3
-5 1 -10 -4 -10 -6 0 -11 5 -11 10 0 6 2 10 4 10 3 0 8 -4 11 -10z m35 0 c0
-5 -4 -10 -10 -10 -5 0 -10 5 -10 10 0 6 5 10 10 10 6 0 10 -4 10 -10z m-170
-10 c0 -5 -5 -10 -11 -10 -5 0 -7 5 -4 10 3 6 8 10 11 10 2 0 4 -4 4 -10z
m215 -39 c-6 -5 -25 10 -25 20 0 5 6 4 14 -3 8 -7 12 -15 11 -17z m45 8 c0
-14 -16 -11 -29 5 -10 12 -8 13 8 9 12 -3 21 -9 21 -14z m-220 1 c0 -5 -5 -10
-11 -10 -5 0 -7 5 -4 10 3 6 8 10 11 10 2 0 4 -4 4 -10z m40 0 c0 -5 -4 -10
-10 -10 -5 0 -10 5 -10 10 0 6 5 10 10 10 6 0 10 -4 10 -10z m215 0 c3 -5 2
-10 -4 -10 -5 0 -13 5 -16 10 -3 6 -2 10 4 10 5 0 13 -4 16 -10z m43 -10 c7
-11 10 -20 6 -20 -7 0 -34 27 -34 34 0 13 16 5 28 -14z m-160 -17 c-10 -2 -26
-2 -35 0 -10 3 -2 5 17 5 19 0 27 -2 18 -5z m99 1 c-3 -3 -12 -4 -19 -1 -8 3
-5 6 6 6 11 1 17 -2 13 -5z m40 0 c-3 -3 -12 -4 -19 -1 -8 3 -5 6 6 6 11 1 17
-2 13 -5z"/>
</g>
</svg>
